<svg width="162" height="24" viewBox="0 0 162 24" fill="none" xmlns="http://www.w3.org/2000/svg">
<path d="M141.015 13.9316C147.411 14.799 153.261 14.7147 158.85 11.8778C159.444 11.5766 160.265 11.7392 160.984 11.685C160.984 12.4861 161.21 13.3835 160.925 14.0641C159.813 16.7505 157.263 17.7262 154.831 18.19C149.07 19.2862 143.238 20.1354 137.525 17.6539C136.942 17.401 135.908 17.6298 135.343 18.0213C131.693 20.5269 127.62 21.575 123.298 21.9785C119.606 22.3218 115.932 23.0807 112.246 23.0868C109.88 23.0868 107.52 22.0327 105.148 21.4967C104.398 21.328 103.554 21.057 102.865 21.2557C96.8006 22.9663 90.5999 22.8278 84.4407 22.5206C80.6656 22.3278 76.9379 21.2437 73.1687 20.7197C72.0748 20.5691 70.8501 20.7859 69.786 21.1413C62.8004 23.4783 55.5949 24.201 48.3062 23.9541C44.644 23.8276 40.9699 23.3397 37.3553 22.7073C35.97 22.4664 34.5373 21.5689 33.4731 20.5872C32.3495 19.5452 31.2377 19.3103 29.805 19.1356C22.1655 18.196 14.5438 17.0757 6.92214 15.9915C5.85202 15.841 4.78191 15.5759 3.74151 15.2688C1.03054 14.4677 0.25768 12.6608 1.52399 9.54081C10.6676 12.7331 20.1441 14.3533 30.0903 14.7267C30.0903 12.8294 29.9536 11.155 30.12 9.51671C30.5184 5.53544 32.4862 2.72868 36.4873 1.82522C40.31 0.963913 44.1446 0.0363492 48.1041 1.0663C52.4678 2.19864 53.8768 6.02332 51.5047 9.9564C49.2158 13.751 45.4644 15.2929 41.719 16.889C40.8629 17.2504 39.9474 17.4672 39.0199 18.2321C40.1852 18.4851 41.3444 18.9429 42.5156 18.9489C48.0327 18.985 53.5676 19.1175 59.0669 18.7622C62.301 18.5574 65.4936 17.5696 68.6683 16.7806C69.1736 16.6541 69.8751 15.6964 69.8216 15.1905C69.1082 7.9989 72.0986 4.83074 78.0734 1.65054C81.0222 0.0785118 86.6641 4.0899 86.5393 7.43272C86.5096 8.21573 86.5155 8.99873 86.5512 9.78173C86.7236 13.4859 84.2385 15.1604 81.4859 16.636C81.1114 16.8348 80.7369 17.0335 80.3921 17.7141C82.2826 17.8165 84.1791 18.0635 86.0637 17.9972C90.2669 17.8527 94.4642 17.5094 98.6733 17.3407C100.463 17.2684 101.045 16.4132 101.004 14.7086C100.891 9.93833 103.007 6.30037 107.02 3.99352C108.715 3.01778 110.891 2.07215 112.704 2.30103C115.807 2.69855 118.5 7.43272 115.153 10.8177C113.001 12.992 110.914 15.2326 108.673 17.5756C109.107 17.7864 109.589 18.2141 110.07 18.2141C116.848 18.2683 123.577 17.8768 129.951 15.2146C131.817 14.4316 132.786 13.3173 132.347 10.8358C131.71 7.25805 133.096 4.05979 135.759 1.54213C138.636 -1.17429 142.542 -0.192529 143.69 3.62612C145.033 8.10128 145.212 9.19146 141.02 13.9377L141.015 13.9316ZM35.7382 13.6004C37.3791 13.1185 38.9069 12.8776 40.2505 12.2331C42.694 11.0647 45.3336 10.0889 46.5048 7.20384C47.1647 5.5776 46.5583 4.92109 45.0602 4.96928C43.6512 5.01746 42.254 5.33668 40.845 5.49328C36.3684 5.98115 34.9118 7.61943 35.7442 13.6004H35.7382ZM75.2079 14.4255C76.7299 13.5341 77.9962 12.709 79.3398 12.0284C81.1946 11.0948 81.3076 9.43239 81.046 7.75195C80.9806 7.33033 79.8629 6.65575 79.4051 6.77621C76.6763 7.51103 74.7323 10.9442 75.2079 14.4255Z" fill="#CCCCCC"/>
</svg>
