<svg width="130" height="150" viewBox="0 0 130 150" fill="none" xmlns="http://www.w3.org/2000/svg">
<path d="M65.6994 75.4299L65.6958 75.4347C62.9706 79.0127 59.8294 80.4736 56.6283 80.4416L56.6277 80.4416C52.1608 80.3934 47.7269 77.1333 45.0417 72.8367C42.358 68.58 41.1755 63.1577 42.9151 58.7014C44.0903 55.6125 46.6657 53.0288 50.9781 51.6391C55.9273 50.0145 60.6171 51.365 64.6528 54.1537C65.8303 54.9399 66.8756 55.8402 67.8751 56.8082C68.1138 55.5059 68.3525 54.1933 68.591 52.8674C69.4496 47.0001 69.6651 40.8266 69.3422 34.9016H69.3421L69.3417 34.8917C69.0197 27.0758 67.4098 19.6045 64.4067 12.3863L64.3947 12.3575L64.3851 12.3278C64.0571 11.3077 64.5346 10.1225 65.5646 9.68307L65.5655 9.68266C66.6292 9.23059 67.7923 9.77588 68.2701 10.7665L68.2793 10.7856L68.2874 10.8051C71.4678 18.4764 73.2241 26.4195 73.5532 34.7204L73.5533 34.7237C73.7711 40.8936 73.6629 47.3562 72.6755 53.5222L72.674 53.5306C72.2602 55.9392 71.8439 58.321 71.3318 60.6799C73.7696 63.8801 75.6805 67.3981 76.8651 70.4135L76.8652 70.4134L76.8696 70.4252C80.7405 80.7832 80.142 92.8741 77.3858 104.629C74.6277 116.393 69.6906 127.898 64.7889 137.143C64.271 138.159 63.0549 138.543 62.0387 138.011L62.0378 138.011C60.9945 137.463 60.6797 136.202 61.1744 135.223L61.1777 135.216L61.1811 135.21C65.8826 126.332 70.6553 115.326 73.3353 104.109C76.0178 92.8809 76.5844 81.5219 72.9694 71.8844C72.2732 70.0289 71.211 67.9318 69.9004 65.8582C69.8742 65.9264 69.8482 65.9935 69.8227 66.0596L69.8213 66.0631C69.777 66.2005 69.7324 66.3393 69.6874 66.4794C68.7539 69.3831 67.6451 72.8324 65.6994 75.4299ZM65.9112 64.7118L65.914 64.7038L65.9169 64.6959C66.2933 63.6986 66.5839 62.7009 66.7903 61.6996C65.4694 60.1191 63.9694 58.6948 62.2938 57.5702L62.2862 57.5651L62.2787 57.5598C59.2602 55.425 55.8167 54.4102 52.2022 55.5774C49.2402 56.547 47.5844 58.2291 46.8086 60.2074L46.8087 60.2074L46.8043 60.2182C45.5247 63.3375 46.4825 67.3181 48.5878 70.6245L48.5879 70.6245L48.595 70.6361C50.591 73.9 53.6472 76.2675 56.7516 76.2995C58.6232 76.3182 60.5872 75.3801 62.4357 72.9394C63.2449 71.8246 63.8668 70.4851 64.4123 69.052C64.7541 68.154 65.0519 67.26 65.3484 66.37C65.5331 65.8157 65.7172 65.263 65.9112 64.7118Z" fill="#CCCCCC" stroke="#CCCCCC" stroke-width="1.5"/>
<path d="M63.1921 135.692C63.419 135.468 63.6553 135.219 63.9054 134.954L63.9105 134.949L63.9157 134.944C64.2336 134.62 64.5262 134.308 64.817 133.998C65.0281 133.773 65.2382 133.549 65.4564 133.322C65.9459 132.813 66.4474 132.323 66.9422 131.971C72.1294 128.191 78.5149 123.63 84.8306 121.596C85.8905 121.235 87.0714 121.851 87.4102 122.934C87.7383 123.983 87.244 125.178 86.0502 125.538C80.5036 127.348 74.8258 131.406 69.8119 134.989C69.6558 135.101 69.5004 135.212 69.3457 135.322C68.9673 135.615 68.4931 136.089 67.9538 136.663C67.7423 136.888 67.5175 137.132 67.2888 137.38C66.9556 137.742 66.6141 138.113 66.2939 138.447L66.2862 138.454L66.2783 138.462C65.2959 139.427 64.2125 140.306 63.0506 140.644C62.0802 140.976 60.767 140.495 59.9908 139.038L59.9864 139.03L59.9822 139.022C59.4974 138.055 59.074 136.322 58.7657 134.863C58.6077 134.115 58.474 133.409 58.3734 132.863C58.3375 132.668 58.3067 132.498 58.2808 132.356C58.2313 132.084 58.1999 131.911 58.1855 131.85L58.185 131.848C57.0966 127.117 56.0542 123.24 52.1837 120.445L52.1705 120.435L52.1578 120.425C51.2892 119.739 51.1626 118.494 51.641 117.628L51.6646 117.586L51.6936 117.546C52.3583 116.644 53.6963 116.404 54.5945 117.103C59.488 120.668 61.0533 125.554 62.2527 130.956L62.2705 131.036V131.118C62.2705 131.117 62.2706 131.118 62.2709 131.122C62.2718 131.135 62.275 131.181 62.2856 131.274C62.2976 131.379 62.316 131.519 62.3407 131.689C62.39 132.027 62.4629 132.471 62.5561 132.967C62.7175 133.826 62.9359 134.822 63.1921 135.692Z" fill="#CCCCCC" stroke="#CCCCCC" stroke-width="1.5"/>
</svg>
