<svg width="59" height="25" viewBox="0 0 59 25" fill="none" xmlns="http://www.w3.org/2000/svg">
<path d="M33.3906 17.3644C32.019 19.8474 29.5928 20.0672 27.3801 20.0315C18.8885 19.883 10.7994 18.2673 3.90495 12.9746C3.38071 12.5707 2.80163 12.1905 2.18595 11.9588C0.911921 11.4777 -0.362144 12.5113 0.0950444 13.7409C0.485179 14.7864 1.17398 15.814 1.97254 16.6219C5.06923 19.7583 9.06201 21.5522 13.256 22.5502C17.5718 23.5778 22.0401 24.2491 26.4718 24.4688C30.6901 24.6767 34.8353 23.9223 37.3651 19.8236C37.6089 19.4316 38.9621 19.4494 39.6997 19.6395C43.2902 20.5602 46.7953 21.968 50.4345 22.4729C52.5376 22.764 54.9211 21.873 57.0303 21.1245C58.3409 20.6612 58.8956 19.3603 58.2677 17.8455C57.5972 16.2239 56.2926 16.6337 55.2625 17.0496C49.1056 19.5207 43.9852 15.9803 38.5355 14.4002C38.121 14.2814 37.7917 13.5389 37.6271 13.0221C35.3534 5.85827 29.8245 2.25852 22.8204 0.589332C21.2476 0.215101 19.2299 1.09425 17.5962 1.78925C17.0171 2.03874 16.438 3.91583 16.7672 4.29006C19.6444 7.55122 21.4792 11.7806 25.661 13.8537C28.1603 15.0893 30.7449 16.1704 33.3844 17.3584L33.3906 17.3644ZM24.7284 6.77899C24.9295 6.51169 25.1307 6.25032 25.3319 5.98301C27.3984 7.57498 29.4588 9.16694 31.5253 10.7589C31.3119 11.0203 31.0985 11.2816 30.8852 11.543C28.837 9.95105 26.7827 8.36502 24.7345 6.77305L24.7284 6.77899Z" fill="#CCCCCC"/>
</svg>
