<svg width="59" height="25" viewBox="0 0 59 25" fill="none" xmlns="http://www.w3.org/2000/svg">
<path d="M25.6094 17.3644C26.981 19.8474 29.4072 20.0672 31.6199 20.0315C40.1115 19.883 48.2006 18.2673 55.0951 12.9746C55.6193 12.5707 56.1984 12.1905 56.814 11.9588C58.0881 11.4777 59.3621 12.5113 58.905 13.7409C58.5148 14.7864 57.826 15.814 57.0275 16.6219C53.9308 19.7583 49.938 21.5522 45.744 22.5502C41.4282 23.5778 36.9599 24.2491 32.5282 24.4688C28.3099 24.6767 24.1647 23.9223 21.6349 19.8236C21.3911 19.4316 20.0379 19.4494 19.3003 19.6395C15.7098 20.5602 12.2047 21.968 8.56549 22.4729C6.46242 22.764 4.0789 21.873 1.96974 21.1245C0.659131 20.6612 0.104391 19.3603 0.732264 17.8455C1.40281 16.2239 2.70735 16.6337 3.73755 17.0496C9.89435 19.5207 15.0148 15.9803 20.4645 14.4002C20.879 14.2814 21.2083 13.5389 21.3729 13.0221C23.6466 5.85827 29.1755 2.25852 36.1796 0.589332C37.7524 0.215101 39.7701 1.09425 41.4038 1.78925C41.9829 2.03874 42.562 3.91583 42.2328 4.29006C39.3556 7.55122 37.5208 11.7806 33.339 13.8537C30.8397 15.0893 28.2551 16.1704 25.6156 17.3584L25.6094 17.3644ZM34.2716 6.77899C34.0705 6.51169 33.8693 6.25032 33.6681 5.98301C31.6016 7.57498 29.5412 9.16694 27.4747 10.7589C27.6881 11.0203 27.9015 11.2816 28.1148 11.543C30.163 9.95105 32.2173 8.36502 34.2655 6.77305L34.2716 6.77899Z" fill="#CCCCCC"/>
</svg>
