<svg width="126" height="24" viewBox="0 0 126 24" fill="none" xmlns="http://www.w3.org/2000/svg">
<path d="M64.1624 23.9799C56.7725 24.3057 52.062 20.6627 49.6085 13.8802C47.9009 9.15127 44.7899 7.24585 39.7554 7.32483C28.8915 7.48279 18.3122 9.01305 8.22358 13.1398C5.15185 14.3936 3.32655 12.7745 1.55025 11.0765C0.0781778 9.6548 1.40301 6.79176 4.21958 5.89336C8.89096 4.4026 13.631 2.79337 18.4594 2.18127C27.1349 1.08542 35.9083 0.68065 44.6328 0.0290615C49.4514 -0.32635 52.3564 2.62551 54.6725 6.28823C55.5655 7.69013 56.017 9.38825 56.6451 10.958C58.6078 15.8646 59.4518 16.8222 64.6923 15.9732C73.4266 14.5713 82.053 12.4882 90.7383 10.7309C100.827 8.67738 110.915 6.58443 121.043 4.70864C122.26 4.48157 123.713 5.57741 125.057 6.05129C124.351 7.06817 123.86 8.65763 122.918 8.9933C117.412 10.9777 111.867 12.9226 106.215 14.3936C94.7226 17.385 83.162 20.0901 71.6111 22.8346C69.1773 23.4171 66.6453 23.6145 64.1624 23.9897V23.9799Z" fill="#CCCCCC"/>
</svg>
